<?xml version="1.0" encoding="utf-8"?>
<!-- Generator: Adobe Illustrator 21.0.1, SVG Export Plug-In . SVG Version: 6.00 Build 0)  -->
<svg version="1.1" id="Layer_1" xmlns="http://www.w3.org/2000/svg" xmlns:xlink="http://www.w3.org/1999/xlink" x="0px" y="0px"
	 viewBox="0 0 1366 768" style="enable-background:new 0 0 1366 768;" xml:space="preserve">
<style type="text/css">
	.st0{fill:#2196F3;}
	.st1{fill:#FF5722;}
	.st2{fill:#FF794E;}
	.st3{fill:none;stroke:#333333;stroke-width:4;stroke-miterlimit:10;}
	.st4{fill:none;stroke:#4D4D4D;stroke-width:4;stroke-miterlimit:10;}
	.st5{fill:#78ABCC;}
	.st6{fill:#4DABF5;}
</style>
<g>
	<path class="st0" d="M159.3,340.2c0,3.8-9.3,5.6-27.9,5.6c-18.6,0-27.9-1.9-27.9-5.6V198.7H69.6c-3.2,0-5.5-4.3-6.8-13
		c-0.6-4.1-0.8-8.4-0.8-12.7c0-4.3,0.3-8.5,0.8-12.7c1.3-8.6,3.6-13,6.8-13h122.6c3.2,0,5.4,4.3,6.8,13c0.6,4.1,0.8,8.4,0.8,12.7
		c0,4.3-0.3,8.6-0.8,12.7c-1.3,8.6-3.6,13-6.8,13h-33V340.2z"/>
	<path class="st0" d="M266,188c0,1.3-8.6,2-25.8,2c-17.2,0-25.8-0.6-25.8-1.7v-40.6c0-1.9,8.6-2.8,25.8-2.8
		c17.2,0,25.8,0.6,25.8,1.7V188z M266,343c0,1.5-8.6,2.3-25.8,2.3c-17.2,0-25.8-0.7-25.8-2V204.9c0-1.3,8.6-2,25.8-2
		c17.2,0,25.8,0.6,25.8,1.7V343z"/>
	<path class="st0" d="M350.3,343c0,1.3-6.8,2-20.3,2c-18.8-0.6-28.2-1.6-28.2-3.1v-91.3h-7.3c-4.9,0-8.1-4.1-9.6-12.4
		c-0.4-2.4-0.6-4.9-0.6-7.3c0-5.8,1.1-11.6,3.4-17.5c3.4-8.3,8.6-12.4,15.8-12.4c7.1,0,13.5,1.7,19.2,5.1c5.6,3.4,9.4,6.8,11.3,10.1
		c11.8-10.1,25.9-15.2,42.3-15.2c16.3,0,28.2,4.4,35.5,13.2c7.3,8.8,11,23.3,11,43.4v84.5c0,2.3-8,3.4-24.1,3.4s-24.1-1.1-24.1-3.4
		v-81.4c0-9.4-3.3-14.1-9.9-14.1c-1.9,0-4.5,0.8-7.9,2.4c-3.4,1.6-5.5,2.8-6.5,3.5V343z"/>
	<path class="st0" d="M436.8,205.2c0-2.1,8.6-3.1,25.8-3.1c17.2,0,26.1,0.9,26.6,2.8l20.3,66.5l19.4-67.1c0.7-1.5,6.6-2.3,17.5-2.3
		c25,0,36.9,1.2,35.8,3.7L516,394.3c-0.2,1.1-5.3,1.7-15.4,1.7c-10.1,0-19.4-0.3-28-1c-8.6-0.7-12.8-1.5-12.4-2.4l24.5-59.2
		L436.8,205.2z"/>
	<path class="st1" d="M158.2,560.9c0,3.8-9.3,5.6-27.9,5.6c-18.6,0-27.9-1.9-27.9-5.6V419.4H68.6c-3.2,0-5.5-4.3-6.8-13
		c-0.6-4.1-0.8-8.4-0.8-12.7c0-4.3,0.3-8.5,0.8-12.7c1.3-8.6,3.6-13,6.8-13h122.6c3.2,0,5.4,4.3,6.8,13c0.6,4.1,0.8,8.4,0.8,12.7
		c0,4.3-0.3,8.6-0.8,12.7c-1.3,8.6-3.6,13-6.8,13h-33V560.9z"/>
	<path class="st1" d="M310.1,557.8c-11.8,7-27.1,10.4-45.6,10.4c-18.6,0-34.3-6.3-47.1-19c-12.8-12.7-19.2-30.2-19.2-52.7
		c0-22.4,6.2-40.5,18.5-54.2c12.3-13.7,27.8-20.6,46.6-20.6c18.8,0,33.3,4.8,43.5,14.4c10.2,9.6,15.4,21.2,15.4,34.9
		c0,30.4-17.5,45.6-52.4,45.6h-19.4c0,5.6,1.6,9.5,4.6,11.7c3.1,2.2,7.7,3.2,13.7,3.2c13.1,0,25.6-3,37.5-9c0.2-0.2,1,1.1,2.5,3.9
		c4.5,8.1,6.8,14.9,6.8,20.4C315.5,552.5,313.7,556.1,310.1,557.8z M274.9,476.4c0-7.9-3.9-11.8-11.6-11.8c-3.6,0-6.6,1.1-9.2,3.2
		c-2.5,2.2-3.8,5.3-3.8,9.4v8.7h15.2C271.8,485.9,274.9,482.7,274.9,476.4z"/>
	<path class="st1" d="M468.2,564c0,1.3-8,2-24.1,2c-16.1,0-24.1-0.8-24.1-2.5v-82c0-9.4-3.1-14.1-9.3-14.1c-3.2,0-7.4,2.1-12.7,6.2
		v90.2c0,1.9-8,2.8-24.1,2.8c-16.1,0-24.1-1-24.1-3.1v-92.1h-7c-6.2,0-9.3-6.5-9.3-19.4c0-5.8,1.1-11.7,3.4-17.8
		c3-8.3,7.9-12.4,14.7-12.4s13.3,1.8,19.6,5.4c6.3,3.6,10.1,7,11.4,10.1c11.6-10.3,24.6-15.5,38.7-15.5c14.2,0,25.6,4.4,34.2,13.2
		c10.1-8.8,22.4-13.2,36.6-13.2c31,0,46.5,18.9,46.5,56.6V564c0,1.3-8,2-24.1,2s-24.1-0.8-24.1-2.5v-82c0-9.4-3.1-14.1-9.3-14.1
		c-3.4,0-7.7,2.1-13,6.2V564z"/>
	<path class="st1" d="M623.2,616.7c0,1.3-8,2-24.1,2c-16.1,0-24.1-0.7-24.1-2V471.6h-9.6c-4.5,0-7.6-4.1-9.3-12.4
		c-0.6-2.6-0.8-6-0.8-10.1c0-4.1,1.3-9,3.9-14.7c3.8-8.3,9.8-12.4,18-12.4c5.4,0,10.5,1.3,15.1,3.8c4.6,2.5,7.8,4.9,9.6,7
		c1.8,2.2,2.7,3.4,2.7,3.8c12.6-9.8,26.2-14.7,40.9-14.7c14.7,0,27.2,5.7,37.8,17c10.5,11.4,15.8,28.9,15.8,52.7
		c0,23.8-5.3,42.2-15.8,55.2c-10.5,13.1-23.9,19.6-40,19.6c-7.3,0-14-0.4-20-1.1V616.7z M634.7,471.3c-3.2,0-6.3,1-9.3,3.1v49.9
		c3.2,0.4,5.8,0.6,7.7,0.6c2,0,3.5,0,4.7,0c7.7-0.7,11.6-10.6,11.6-29.6C649.4,479.3,644.5,471.3,634.7,471.3z"/>
	<path class="st1" d="M770.2,563.1c0,1.7-9.6,2.5-28.7,2.5c-15-0.2-22.5-0.9-22.5-2.3V371.5c0-2.8,9.1-4.2,27.3-4.2
		c16,0.6,24,1.5,24,2.8V563.1z"/>
	<path class="st1" d="M813.4,463.1c-5.3-9.4-7.9-17-7.9-23c0-5.9,1.6-9.7,4.8-11.4c10.7-4.7,25.4-7,44.1-7
		c18.7,0,31.9,4.4,39.6,13.1c7.7,8.7,11.6,21.7,11.6,38.7v44.5h9.6c3.2,0,5.7,1.9,7.5,5.6c1.8,3.8,2.7,8.9,2.7,15.5
		c0,6.6-1.6,13.1-4.9,19.4c-3.3,6.4-7.7,9.6-13.4,9.6c-10.1,0-18.3-2.7-24.5-8.2c-2.8-2.3-5-5-6.5-8.2
		c-8.6,10.9-22.1,16.3-40.3,16.3c-13.7,0-25.3-4.9-34.7-14.7c-9.4-9.8-14.1-21.3-14.1-34.7c0-30.6,18.3-45.9,54.9-45.9h15.5v-2.8
		c0-4.9-0.8-8-2.4-9.4c-1.6-1.4-5.3-2.1-11.1-2.1C836.6,458.6,826.5,460.1,813.4,463.1z M835.9,515c0,4.1,1.1,7.3,3.4,9.4
		c2.3,2.2,5.1,3.2,8.6,3.2c3.5,0,6.6-1.4,9.4-4.2v-21.7h-7.9C840.4,501.7,835.9,506.1,835.9,515z"/>
	<path class="st1" d="M1006.1,563.7c0,2.3-7.9,3.4-23.7,3.4c-18.8-0.8-28.2-2-28.2-3.7v-99.8h-14.4c-3.8,0-5.6-6.5-5.6-19.4
		c0-3.4,0.3-7.5,1-12.4c0.7-4.9,2-7.3,4.1-7.3h14.9v-24.8c0-3.8,7.9-5.6,23.8-5.6c15.9,0,23.8,1.5,23.8,4.5v18l0.3,7.9h23.9
		c3.2,0,4.8,6.6,4.8,19.7c0,13.2-1.6,19.7-4.8,19.7h-20V563.7z"/>
	<path class="st1" d="M1151.5,557.8c-11.8,7-27.1,10.4-45.6,10.4s-34.3-6.3-47.1-19c-12.8-12.7-19.2-30.2-19.2-52.7
		c0-22.4,6.2-40.5,18.5-54.2c12.3-13.7,27.8-20.6,46.6-20.6c18.8,0,33.3,4.8,43.5,14.4c10.2,9.6,15.4,21.2,15.4,34.9
		c0,30.4-17.5,45.6-52.4,45.6h-19.4c0,5.6,1.6,9.5,4.6,11.7c3.1,2.2,7.7,3.2,13.7,3.2c13.1,0,25.6-3,37.5-9c0.2-0.2,1,1.1,2.5,3.9
		c4.5,8.1,6.8,14.9,6.8,20.4C1156.8,552.5,1155.1,556.1,1151.5,557.8z M1116.3,476.4c0-7.9-3.9-11.8-11.6-11.8
		c-3.6,0-6.6,1.1-9.2,3.2c-2.5,2.2-3.8,5.3-3.8,9.4v8.7h15.2C1113.2,485.9,1116.3,482.7,1116.3,476.4z"/>
	<path class="st1" d="M1187.8,514.7c15.2,9.2,27.2,13.8,36.1,13.8c5.6,0,8.5-2,8.5-5.9c0-2.8-4.9-6.5-14.7-11
		c-23.5-9.6-35.2-25.3-35.2-47.1c0-13.9,5.1-24.5,15.2-31.8c10.1-7.3,22.3-11,36.5-11c14.2,0,26.2,1.5,36.1,4.5
		c9.9,3,14.8,7,14.8,11.8c0,4.1-2,9.6-6.1,16.3c-4,6.8-6.8,10.4-8.3,11c-8.1-4.5-16.8-6.8-26.2-6.8c-5.1,0-7.6,1.8-7.6,5.4
		c0,2.3,1,4.2,3,5.8c2,1.6,5.6,3.6,10.8,5.9c5.3,2.4,9.6,4.5,13.1,6.3c3.5,1.9,7.4,4.5,11.7,7.9c9,7.1,13.5,16.4,13.5,27.9
		c0,15-5,27.2-14.9,36.5c-10,9.3-25,13.9-45.1,13.9c-13.3,0-25.5-2.3-36.4-6.8c-10.9-4.5-16.3-10.7-16.3-18.6
		c0-5.3,1.3-10.8,3.8-16.6C1182.6,520.4,1185.2,516.6,1187.8,514.7z"/>
</g>
<g>
	<g>
		
			<image style="overflow:visible;opacity:0.75;" width="167" height="196" xlink:href="599A801E.png"  transform="matrix(1 0 0 1 625 164)">
		</image>
		<g>
			<path class="st2" d="M762.6,335.3H654.3c-6.6,0-12-5.4-12-12V186c0-6.6,5.4-12,12-12h108.3c6.6,0,12,5.4,12,12v137.3
				C774.6,329.9,769.2,335.3,762.6,335.3z"/>
			<path class="st3" d="M762.6,335.3H654.3c-6.6,0-12-5.4-12-12V186c0-6.6,5.4-12,12-12h108.3c6.6,0,12,5.4,12,12v137.3
				C774.6,329.9,769.2,335.3,762.6,335.3z"/>
		</g>
	</g>
	<line class="st4" x1="664.1" y1="217.5" x2="745.6" y2="217.5"/>
	<line class="st4" x1="664.1" y1="244.7" x2="745.6" y2="244.7"/>
	<line class="st4" x1="664.1" y1="273.7" x2="713" y2="273.7"/>
	<g>
		
			<image style="overflow:visible;opacity:0.75;" width="167" height="196" xlink:href="599A8022.png"  transform="matrix(1 0 0 1 710 180)">
		</image>
		<g>
			<path class="st5" d="M847.8,351.6H739.5c-6.6,0-12-5.4-12-12V202.3c0-6.6,5.4-12,12-12h108.3c6.6,0,12,5.4,12,12v137.3
				C859.8,346.2,854.4,351.6,847.8,351.6z"/>
			<path class="st3" d="M847.8,351.6H739.5c-6.6,0-12-5.4-12-12V202.3c0-6.6,5.4-12,12-12h108.3c6.6,0,12,5.4,12,12v137.3
				C859.8,346.2,854.4,351.6,847.8,351.6z"/>
		</g>
	</g>
	<line class="st4" x1="754.7" y1="232" x2="836.3" y2="232"/>
	<line class="st4" x1="754.7" y1="259.2" x2="836.3" y2="259.2"/>
	<line class="st4" x1="754.7" y1="288.2" x2="803.6" y2="288.2"/>
	<g>
		
			<image style="overflow:visible;opacity:0.75;" width="167" height="197" xlink:href="599A8025.png"  transform="matrix(1 0 0 1 808 194)">
		</image>
		<g>
			<path class="st6" d="M945.7,366.1H837.4c-6.6,0-12-5.4-12-12V216.8c0-6.6,5.4-12,12-12h108.3c6.6,0,12,5.4,12,12v137.3
				C957.7,360.7,952.3,366.1,945.7,366.1z"/>
			<path class="st3" d="M945.7,366.1H837.4c-6.6,0-12-5.4-12-12V216.8c0-6.6,5.4-12,12-12h108.3c6.6,0,12,5.4,12,12v137.3
				C957.7,360.7,952.3,366.1,945.7,366.1z"/>
		</g>
	</g>
	<line class="st4" x1="850.8" y1="250.1" x2="932.3" y2="250.1"/>
	<line class="st4" x1="850.8" y1="277.3" x2="932.3" y2="277.3"/>
	<line class="st4" x1="850.8" y1="306.3" x2="899.7" y2="306.3"/>
</g>
</svg>
